<?xml version="1.0" encoding="UTF-8" standalone="no"?>
<!DOCTYPE svg PUBLIC "-//W3C//DTD SVG 1.1//EN" "http://www.w3.org/Graphics/SVG/1.1/DTD/svg11.dtd">
<!-- Generated by graphviz version 2.40.1 (20161225.0304)
 -->
<!-- Title: G Pages: 1 -->
<svg width="369pt" height="260pt" viewBox="0.00 0.00 368.85 260.00" xmlns="http://www.w3.org/2000/svg" xmlns:xlink="http://www.w3.org/1999/xlink">
<g id="graph0" class="graph" transform="scale(1 1) rotate(0) translate(4 256)">
<title>G</title>
<polygon fill="#ffffff" stroke="transparent" points="-4,4 -4,-256 364.8462,-256 364.8462,4 -4,4"/>
<!-- std_e -->
<g id="node1" class="node">
<title>std_e</title>
<ellipse fill="none" stroke="#000000" cx="206.1887" cy="-90" rx="31.339" ry="18"/>
<text text-anchor="middle" x="206.1887" y="-85.8" font-family="Times,serif" font-size="14.00" fill="#000000">std_e</text>
</g>
<!-- project_utils -->
<g id="node2" class="node">
<title>project_utils</title>
<ellipse fill="none" stroke="#000000" cx="176.1887" cy="-18" rx="59.1257" ry="18"/>
<text text-anchor="middle" x="176.1887" y="-13.8" font-family="Times,serif" font-size="14.00" fill="#000000">project_utils</text>
</g>
<!-- std_e&#45;&gt;project_utils -->
<g id="edge1" class="edge">
<title>std_e-&gt;project_utils</title>
<path fill="none" stroke="#000000" d="M198.7729,-72.2022C195.4089,-64.1287 191.3543,-54.3976 187.6145,-45.422"/>
<polygon fill="#000000" stroke="#000000" points="190.8044,-43.9777 183.7275,-36.0931 184.3429,-46.6701 190.8044,-43.9777"/>
</g>
<!-- Maia -->
<g id="node3" class="node">
<title>Maia</title>
<ellipse fill="none" stroke="#000000" cx="50.1887" cy="-162" rx="30.7558" ry="18"/>
<text text-anchor="middle" x="50.1887" y="-157.8" font-family="Times,serif" font-size="14.00" fill="#000000">Maia</text>
</g>
<!-- Maia&#45;&gt;std_e -->
<g id="edge7" class="edge">
<title>Maia-&gt;std_e</title>
<path fill="none" stroke="#000000" d="M74.5637,-150.75C100.8541,-138.6159 142.8981,-119.211 172.3765,-105.6056"/>
<polygon fill="#000000" stroke="#000000" points="173.8571,-108.7771 181.47,-101.4086 170.9237,-102.4214 173.8571,-108.7771"/>
</g>
<!-- Maia&#45;&gt;project_utils -->
<g id="edge2" class="edge">
<title>Maia-&gt;project_utils</title>
<path fill="none" stroke="#000000" d="M64.3975,-145.7613C86.1642,-120.8851 127.9526,-73.1269 153.8145,-43.5704"/>
<polygon fill="#000000" stroke="#000000" points="156.7056,-45.5814 160.6567,-35.7508 151.4376,-40.9718 156.7056,-45.5814"/>
</g>
<!-- Tasky -->
<g id="node4" class="node">
<title>Tasky</title>
<ellipse fill="none" stroke="#000000" cx="248.1887" cy="-162" rx="34.7709" ry="18"/>
<text text-anchor="middle" x="248.1887" y="-157.8" font-family="Times,serif" font-size="14.00" fill="#000000">Tasky</text>
</g>
<!-- Tasky&#45;&gt;std_e -->
<g id="edge8" class="edge">
<title>Tasky-&gt;std_e</title>
<path fill="none" stroke="#000000" d="M238.0216,-144.5708C233.0175,-135.9922 226.8831,-125.4762 221.3397,-115.9732"/>
<polygon fill="#000000" stroke="#000000" points="224.324,-114.1429 216.2621,-107.2687 218.2776,-117.6701 224.324,-114.1429"/>
</g>
<!-- Tasky&#45;&gt;project_utils -->
<g id="edge3" class="edge">
<title>Tasky-&gt;project_utils</title>
<path fill="none" stroke="#000000" d="M252.1382,-143.9987C255.3485,-125.0062 257.6798,-94.7361 246.1887,-72 239.4475,-58.6622 227.7081,-47.6586 215.7477,-39.1431"/>
<polygon fill="#000000" stroke="#000000" points="217.3357,-35.9965 207.0679,-33.3844 213.4658,-41.8295 217.3357,-35.9965"/>
</g>
<!-- Project_B -->
<g id="node5" class="node">
<title>Project_B</title>
<ellipse fill="none" stroke="#000000" cx="311.1887" cy="-234" rx="49.8156" ry="18"/>
<text text-anchor="middle" x="311.1887" y="-229.8" font-family="Times,serif" font-size="14.00" fill="#000000">Project_B</text>
</g>
<!-- Project_B&#45;&gt;std_e -->
<g id="edge11" class="edge">
<title>Project_B-&gt;std_e</title>
<path fill="none" stroke="#000000" d="M311.3962,-215.8063C310.7557,-196.3749 307.1722,-165.4802 292.1887,-144 279.9338,-126.4317 259.9396,-113.3758 242.3129,-104.5064"/>
<polygon fill="#000000" stroke="#000000" points="243.3632,-101.1309 232.828,-100.0076 240.3633,-107.4555 243.3632,-101.1309"/>
</g>
<!-- Project_B&#45;&gt;project_utils -->
<g id="edge4" class="edge">
<title>Project_B-&gt;project_utils</title>
<path fill="none" stroke="#000000" d="M315.1823,-215.9547C318.5009,-197.4505 321.5976,-168.0551 314.1887,-144 302.795,-107.0074 293.2639,-98.6468 265.1887,-72 251.2719,-58.7913 233.5917,-47.2511 217.6628,-38.2672"/>
<polygon fill="#000000" stroke="#000000" points="218.9825,-35.0001 208.5282,-33.2797 215.6279,-41.1439 218.9825,-35.0001"/>
</g>
<!-- Project_B&#45;&gt;Tasky -->
<g id="edge15" class="edge">
<title>Project_B-&gt;Tasky</title>
<path fill="none" stroke="#000000" d="M295.9381,-216.5708C288.0074,-207.5071 278.1843,-196.2807 269.5135,-186.3713"/>
<polygon fill="#000000" stroke="#000000" points="272.0841,-183.9939 262.865,-178.7729 266.816,-188.6035 272.0841,-183.9939"/>
</g>
<!-- Project_A -->
<g id="node6" class="node">
<title>Project_A</title>
<ellipse fill="none" stroke="#000000" cx="50.1887" cy="-234" rx="50.378" ry="18"/>
<text text-anchor="middle" x="50.1887" y="-229.8" font-family="Times,serif" font-size="14.00" fill="#000000">Project_A</text>
</g>
<!-- Project_A&#45;&gt;std_e -->
<g id="edge9" class="edge">
<title>Project_A-&gt;std_e</title>
<path fill="none" stroke="#000000" d="M68.3892,-217.1995C96.5449,-191.2096 150.6809,-141.2379 182.0649,-112.2681"/>
<polygon fill="#000000" stroke="#000000" points="184.5499,-114.7374 189.524,-105.3828 179.8019,-109.5938 184.5499,-114.7374"/>
</g>
<!-- Project_A&#45;&gt;project_utils -->
<g id="edge5" class="edge">
<title>Project_A-&gt;project_utils</title>
<path fill="none" stroke="#000000" d="M32.8678,-216.6924C24.2491,-206.8368 14.7226,-193.7381 10.1887,-180 5.1742,-164.8061 3.4605,-158.5166 10.1887,-144 23.4895,-115.3022 96.0552,-67.0299 140.7276,-39.3078"/>
<polygon fill="#000000" stroke="#000000" points="142.5857,-42.274 149.2643,-34.0492 138.9144,-36.314 142.5857,-42.274"/>
</g>
<!-- Project_A&#45;&gt;Maia -->
<g id="edge12" class="edge">
<title>Project_A-&gt;Maia</title>
<path fill="none" stroke="#000000" d="M50.1887,-215.8314C50.1887,-208.131 50.1887,-198.9743 50.1887,-190.4166"/>
<polygon fill="#000000" stroke="#000000" points="53.6888,-190.4132 50.1887,-180.4133 46.6888,-190.4133 53.6888,-190.4132"/>
</g>
<!-- My_project -->
<g id="node7" class="node">
<title>My_project</title>
<ellipse fill="none" stroke="#000000" cx="180.1887" cy="-234" rx="56.1802" ry="18"/>
<text text-anchor="middle" x="180.1887" y="-229.8" font-family="Times,serif" font-size="14.00" fill="#000000">My_project</text>
</g>
<!-- My_project&#45;&gt;std_e -->
<g id="edge10" class="edge">
<title>My_project-&gt;std_e</title>
<path fill="none" stroke="#000000" d="M183.4816,-215.7623C187.9358,-191.0928 195.9223,-146.8598 201.138,-117.9731"/>
<polygon fill="#000000" stroke="#000000" points="204.5899,-118.5524 202.9225,-108.0896 197.7013,-117.3086 204.5899,-118.5524"/>
</g>
<!-- My_project&#45;&gt;project_utils -->
<g id="edge6" class="edge">
<title>My_project-&gt;project_utils</title>
<path fill="none" stroke="#000000" d="M176.544,-216.015C170.9538,-186.1134 161.388,-124.2876 166.1887,-72 166.9609,-63.5885 168.3963,-54.5317 169.9434,-46.2836"/>
<polygon fill="#000000" stroke="#000000" points="173.3954,-46.8697 171.9212,-36.3779 166.5309,-45.499 173.3954,-46.8697"/>
</g>
<!-- My_project&#45;&gt;Maia -->
<g id="edge13" class="edge">
<title>My_project-&gt;Maia</title>
<path fill="none" stroke="#000000" d="M151.9806,-218.3771C131.2948,-206.9203 103.1963,-191.3581 81.7612,-179.4863"/>
<polygon fill="#000000" stroke="#000000" points="83.1722,-176.2669 72.7285,-174.4836 79.7807,-182.3904 83.1722,-176.2669"/>
</g>
<!-- My_project&#45;&gt;Tasky -->
<g id="edge14" class="edge">
<title>My_project-&gt;Tasky</title>
<path fill="none" stroke="#000000" d="M196.6496,-216.5708C205.4198,-207.2847 216.334,-195.7285 225.858,-185.6442"/>
<polygon fill="#000000" stroke="#000000" points="228.4898,-187.955 232.8115,-178.2817 223.4007,-183.1487 228.4898,-187.955"/>
</g>
</g>
</svg>