<?xml version="1.0" encoding="UTF-8" standalone="no"?>
<!DOCTYPE svg PUBLIC "-//W3C//DTD SVG 1.1//EN" "http://www.w3.org/Graphics/SVG/1.1/DTD/svg11.dtd">
<!-- Generated by graphviz version 2.40.1 (20161225.0304)
 -->
<!-- Title: G Pages: 1 -->
<svg width="453pt" height="260pt" viewBox="0.00 0.00 453.01 260.00" xmlns="http://www.w3.org/2000/svg" xmlns:xlink="http://www.w3.org/1999/xlink">
<g id="graph0" class="graph" transform="scale(1 1) rotate(0) translate(4 256)">
<title>G</title>
<polygon fill="#ffffff" stroke="transparent" points="-4,4 -4,-256 449.0119,-256 449.0119,4 -4,4"/>
<!-- base_lib -->
<g id="node1" class="node">
<title>base_lib</title>
<ellipse fill="none" stroke="#000000" cx="170.506" cy="-90" rx="43.4377" ry="18"/>
<text text-anchor="middle" x="170.506" y="-85.8" font-family="Times,serif" font-size="14.00" fill="#000000">base_lib</text>
</g>
<!-- low_level_common -->
<g id="node2" class="node">
<title>low_level_common</title>
<ellipse fill="none" stroke="#000000" cx="205.506" cy="-18" rx="87.9858" ry="18"/>
<text text-anchor="middle" x="205.506" y="-13.8" font-family="Times,serif" font-size="14.00" fill="#000000">low_level_common</text>
</g>
<!-- base_lib&#45;&gt;low_level_common -->
<g id="edge1" class="edge">
<title>base_lib-&gt;low_level_common</title>
<path fill="none" stroke="#000000" d="M179.1576,-72.2022C183.124,-64.0428 187.9134,-54.1904 192.3149,-45.1358"/>
<polygon fill="#000000" stroke="#000000" points="195.4865,-46.617 196.7107,-36.0931 189.1909,-43.5566 195.4865,-46.617"/>
</g>
<!-- app_lib_0 -->
<g id="node3" class="node">
<title>app_lib_0</title>
<ellipse fill="none" stroke="#000000" cx="125.506" cy="-162" rx="49.8233" ry="18"/>
<text text-anchor="middle" x="125.506" y="-157.8" font-family="Times,serif" font-size="14.00" fill="#000000">app_lib_0</text>
</g>
<!-- app_lib_0&#45;&gt;base_lib -->
<g id="edge7" class="edge">
<title>app_lib_0-&gt;base_lib</title>
<path fill="none" stroke="#000000" d="M136.6296,-144.2022C141.9155,-135.7448 148.3382,-125.4685 154.1641,-116.147"/>
<polygon fill="#000000" stroke="#000000" points="157.1783,-117.928 159.5103,-107.593 151.2423,-114.218 157.1783,-117.928"/>
</g>
<!-- app_lib_0&#45;&gt;low_level_common -->
<g id="edge2" class="edge">
<title>app_lib_0-&gt;low_level_common</title>
<path fill="none" stroke="#000000" d="M118.489,-143.8356C112.3211,-124.7068 106.0875,-94.3241 118.506,-72 126.3748,-57.8544 139.6524,-46.94 153.4957,-38.7477"/>
<polygon fill="#000000" stroke="#000000" points="155.5324,-41.6229 162.6232,-33.7507 152.1709,-35.4828 155.5324,-41.6229"/>
</g>
<!-- app_lib_1 -->
<g id="node4" class="node">
<title>app_lib_1</title>
<ellipse fill="none" stroke="#000000" cx="319.506" cy="-162" rx="49.8233" ry="18"/>
<text text-anchor="middle" x="319.506" y="-157.8" font-family="Times,serif" font-size="14.00" fill="#000000">app_lib_1</text>
</g>
<!-- app_lib_1&#45;&gt;base_lib -->
<g id="edge8" class="edge">
<title>app_lib_1-&gt;base_lib</title>
<path fill="none" stroke="#000000" d="M289.3536,-147.4297C265.9034,-136.0981 233.2362,-120.3126 208.0838,-108.1584"/>
<polygon fill="#000000" stroke="#000000" points="209.3735,-104.8944 198.8467,-103.6949 206.3278,-111.1972 209.3735,-104.8944"/>
</g>
<!-- app_lib_1&#45;&gt;low_level_common -->
<g id="edge3" class="edge">
<title>app_lib_1-&gt;low_level_common</title>
<path fill="none" stroke="#000000" d="M307.8806,-144.2566C295.5226,-125.7402 275.0978,-96.1015 255.506,-72 247.652,-62.3383 238.532,-52.2071 230.248,-43.3641"/>
<polygon fill="#000000" stroke="#000000" points="232.6564,-40.8173 223.2361,-35.9687 227.5767,-45.6336 232.6564,-40.8173"/>
</g>
<!-- project_1 -->
<g id="node5" class="node">
<title>project_1</title>
<ellipse fill="none" stroke="#000000" cx="47.506" cy="-234" rx="47.5119" ry="18"/>
<text text-anchor="middle" x="47.506" y="-229.8" font-family="Times,serif" font-size="14.00" fill="#000000">project_1</text>
</g>
<!-- project_1&#45;&gt;base_lib -->
<g id="edge9" class="edge">
<title>project_1-&gt;base_lib</title>
<path fill="none" stroke="#000000" d="M46.9569,-215.9201C47.2766,-196.3011 50.5602,-164.9769 66.506,-144 81.026,-124.8986 104.2403,-111.9361 125.0563,-103.5103"/>
<polygon fill="#000000" stroke="#000000" points="126.309,-106.7785 134.4118,-99.9524 123.8208,-100.2356 126.309,-106.7785"/>
</g>
<!-- project_1&#45;&gt;low_level_common -->
<g id="edge4" class="edge">
<title>project_1-&gt;low_level_common</title>
<path fill="none" stroke="#000000" d="M43.968,-215.7889C41.15,-197.1526 38.9421,-167.6537 47.506,-144 65.64,-93.9129 117.8395,-58.9175 157.3189,-38.7303"/>
<polygon fill="#000000" stroke="#000000" points="159.1372,-41.7356 166.5446,-34.1606 156.0301,-35.4629 159.1372,-41.7356"/>
</g>
<!-- project_1&#45;&gt;app_lib_0 -->
<g id="edge12" class="edge">
<title>project_1-&gt;app_lib_0</title>
<path fill="none" stroke="#000000" d="M65.5968,-217.3008C75.762,-207.9175 88.618,-196.0504 99.8122,-185.7173"/>
<polygon fill="#000000" stroke="#000000" points="102.269,-188.2127 107.2431,-178.8581 97.521,-183.0691 102.269,-188.2127"/>
</g>
<!-- project_2 -->
<g id="node6" class="node">
<title>project_2</title>
<ellipse fill="none" stroke="#000000" cx="222.506" cy="-234" rx="47.5119" ry="18"/>
<text text-anchor="middle" x="222.506" y="-229.8" font-family="Times,serif" font-size="14.00" fill="#000000">project_2</text>
</g>
<!-- project_2&#45;&gt;base_lib -->
<g id="edge10" class="edge">
<title>project_2-&gt;base_lib</title>
<path fill="none" stroke="#000000" d="M216.0253,-216.0535C207.1116,-191.3696 190.985,-146.7111 180.5148,-117.7167"/>
<polygon fill="#000000" stroke="#000000" points="183.7568,-116.3895 177.0683,-108.1727 177.1729,-118.767 183.7568,-116.3895"/>
</g>
<!-- project_2&#45;&gt;low_level_common -->
<g id="edge5" class="edge">
<title>project_2-&gt;low_level_common</title>
<path fill="none" stroke="#000000" d="M224.2884,-215.8844C226.8517,-185.7951 230.4525,-123.7054 222.506,-72 221.1685,-63.2979 218.6856,-54.074 216.0226,-45.759"/>
<polygon fill="#000000" stroke="#000000" points="219.2906,-44.4982 212.7498,-36.1634 212.6653,-46.7579 219.2906,-44.4982"/>
</g>
<!-- project_2&#45;&gt;app_lib_0 -->
<g id="edge13" class="edge">
<title>project_2-&gt;app_lib_0</title>
<path fill="none" stroke="#000000" d="M200.4952,-217.6621C187.225,-207.812 170.1382,-195.1291 155.6274,-184.3582"/>
<polygon fill="#000000" stroke="#000000" points="157.5455,-181.4231 147.4297,-178.2733 153.3733,-187.0439 157.5455,-181.4231"/>
</g>
<!-- project_2&#45;&gt;app_lib_1 -->
<g id="edge14" class="edge">
<title>project_2-&gt;app_lib_1</title>
<path fill="none" stroke="#000000" d="M244.5168,-217.6621C257.787,-207.812 274.8737,-195.1291 289.3845,-184.3582"/>
<polygon fill="#000000" stroke="#000000" points="291.6386,-187.0439 297.5823,-178.2733 287.4665,-181.4231 291.6386,-187.0439"/>
</g>
<!-- project_0 -->
<g id="node7" class="node">
<title>project_0</title>
<ellipse fill="none" stroke="#000000" cx="397.506" cy="-234" rx="47.5119" ry="18"/>
<text text-anchor="middle" x="397.506" y="-229.8" font-family="Times,serif" font-size="14.00" fill="#000000">project_0</text>
</g>
<!-- project_0&#45;&gt;base_lib -->
<g id="edge11" class="edge">
<title>project_0-&gt;base_lib</title>
<path fill="none" stroke="#000000" d="M398.8922,-215.923C399.3988,-195.7095 396.9255,-163.286 378.506,-144 357.2032,-121.6951 276.6504,-105.6763 222.2701,-97.128"/>
<polygon fill="#000000" stroke="#000000" points="222.52,-93.6255 212.1049,-95.5686 221.4585,-100.5445 222.52,-93.6255"/>
</g>
<!-- project_0&#45;&gt;low_level_common -->
<g id="edge6" class="edge">
<title>project_0-&gt;low_level_common</title>
<path fill="none" stroke="#000000" d="M403.5428,-215.8563C408.7603,-196.7448 413.7223,-166.3763 401.506,-144 372.1273,-90.1881 308.8376,-55.93 262.0863,-36.9337"/>
<polygon fill="#000000" stroke="#000000" points="263.2625,-33.6353 252.6757,-33.2234 260.695,-40.1474 263.2625,-33.6353"/>
</g>
<!-- project_0&#45;&gt;app_lib_1 -->
<g id="edge15" class="edge">
<title>project_0-&gt;app_lib_1</title>
<path fill="none" stroke="#000000" d="M379.4151,-217.3008C369.2499,-207.9175 356.3939,-196.0504 345.1997,-185.7173"/>
<polygon fill="#000000" stroke="#000000" points="347.4909,-183.0691 337.7689,-178.8581 342.7429,-188.2127 347.4909,-183.0691"/>
</g>
</g>
</svg>